<svg id="enter_2_" data-name="enter (2)" xmlns="http://www.w3.org/2000/svg" width="16" height="16" viewBox="0 0 16 16">
  <path id="路径_7" data-name="路径 7" class="cls-1" d="M179.882.01c-.017,0-.031-.01-.048-.01h-7.167a2,2,0,0,0-2,2v.667a.667.667,0,1,0,1.333,0V2a.668.668,0,0,1,.667-.667h3.106l-.2.068a1.34,1.34,0,0,0-.9,1.265v10h-2A.668.668,0,0,1,172,12V10.667a.667.667,0,1,0-1.333,0V12a2,2,0,0,0,2,2h2v.667A1.335,1.335,0,0,0,176,16a1.4,1.4,0,0,0,.425-.066l4.005-1.335a1.34,1.34,0,0,0,.9-1.265v-12A1.336,1.336,0,0,0,179.882.01Zm0,0" transform="translate(-165.334)" fill="#999"/>
  <path id="路径_8" data-name="路径 8" class="cls-1" d="M7.138,109.525l-2.667-2.667a.666.666,0,0,0-1.138.471v2H.667a.667.667,0,0,0,0,1.333H3.333v2a.666.666,0,0,0,1.138.471l2.667-2.667a.666.666,0,0,0,0-.943Zm0,0" transform="translate(0 -103.33)" fill="#999"/>
</svg>
