<svg id="logo_cxc" xmlns="http://www.w3.org/2000/svg" width="82" height="36" viewBox="0 0 82 36">
  <ellipse id="椭圆_1" data-name="椭圆 1" cx="18.035" cy="17.997" rx="18.035" ry="17.997" transform="translate(22.943 0.006)" fill="#ffd550"/>
  <path id="路径_1" data-name="路径 1" d="M653.355,287.332a17.994,17.994,0,1,1,12.726-30.714l1.532,1.534h0a3.576,3.576,0,0,1-4.93.113c-.057-.052-.1-.093-.134-.119a14.49,14.49,0,1,0,.007,22.389c.03-.025.073-.063.127-.111a3.575,3.575,0,0,1,4.93.112h0l-1.531,1.533A17.946,17.946,0,0,1,653.355,287.332Z" transform="translate(-635.373 -251.347)" fill="#1f2436"/>
  <path id="路径_2" data-name="路径 2" d="M716.752,264.623a3.628,3.628,0,0,1-4.562-1.884c-.023-.05-.043-.091-.061-.124a14.5,14.5,0,0,0-22.022-4.474c-.033.027-.081.07-.142.125a3.573,3.573,0,0,1-4.928-.114h0l1.531-1.533a18,18,0,0,1,29.565,6.361l.619,1.643Z" transform="translate(-635.294 -251.347)" fill="#1f2436"/>
  <path id="路径_3" data-name="路径 3" d="M712.177,275.972c-.02.045-.037.08-.049.1a14.5,14.5,0,0,1-23.078,3.514l-10.243-10.244h0l5.742-5.742a3.508,3.508,0,0,0-4.963,0l-3.261,3.26-3.261-3.26a3.508,3.508,0,0,0-4.963,0l5.742,5.742h0l-5.742,5.742a3.508,3.508,0,0,0,4.963,0l3.261-3.261,10.244,10.244a18,18,0,0,0,29.565-6.366l.619-1.642A3.625,3.625,0,0,0,712.177,275.972Z" transform="translate(-635.294 -251.347)" fill="#1f2436"/>
  <path id="路径_4" data-name="路径 4" d="M714.73,268.281a1.5,1.5,0,0,1,2.124,0h0a1.5,1.5,0,0,1,0,2.124h0a1.5,1.5,0,0,1-2.124,0l-.885-.884a.251.251,0,0,1,0-.355Z" transform="translate(-635.294 -251.347)" fill="#ffd550"/>
</svg>
