<svg id="logo_cxc_text" xmlns="http://www.w3.org/2000/svg" width="171.999" height="40" viewBox="0 0 171.999 40">
  <g id="Craft_x_Creator" data-name="Craft x Creator">
    <path id="路径_5" data-name="路径 5" d="M383.992,341.581H381.82v-7.033a4.8,4.8,0,0,1,4.918-4.659h2.36a2.175,2.175,0,0,1-2.172,2.178h-.188a2.626,2.626,0,0,0-2.747,2.481Z" transform="translate(-360.8 -322.935)" fill="#1f2436"/>
    <path id="路径_6" data-name="路径 6" d="M537.3,341.581h-2.172v-7.033a4.652,4.652,0,0,1,4.644-4.659h.119a2.153,2.153,0,0,1,2.15,2.157v.022h-2.269a2.476,2.476,0,0,0-2.473,2.481Z" transform="translate(-430.876 -322.935)" fill="#1f2436"/>
    <path id="路径_7" data-name="路径 7" d="M649.356,341.581h-2.172v-7.033a4.652,4.652,0,0,1,4.644-4.659H654.1a2.175,2.175,0,0,1-2.172,2.178h-.1a2.477,2.477,0,0,0-2.473,2.481Z" transform="translate(-482.099 -322.935)" fill="#1f2436"/>
    <path id="路径_8" data-name="路径 8" d="M411.336,341.581h-1.086a3.029,3.029,0,0,1-3.121-2.919v-3.842a3.22,3.22,0,0,0-6.373,0v2.538a2.246,2.246,0,0,0,2.4,2.045h1.572a2.175,2.175,0,0,1,2.172,2.178h-3.744a4.412,4.412,0,0,1-4.57-4.223v-2.538a5.376,5.376,0,0,1,10.716,0v3.842a.66.66,0,0,0,.46.625,2.512,2.512,0,0,1,1.574,2.294Z" transform="translate(-368.464 -322.935)" fill="#1f2436"/>
    <path id="路径_9" data-name="路径 9" d="M588.454,341.581h-1.086a3.028,3.028,0,0,1-3.12-2.919v-3.842a3.221,3.221,0,0,0-6.373,0v2.538a2.246,2.246,0,0,0,2.4,2.045h1.393a2.175,2.175,0,0,1,2.172,2.178h-3.564a4.412,4.412,0,0,1-4.57-4.223v-2.538a5.377,5.377,0,0,1,10.716,0v3.842a.649.649,0,0,0,.448.609,2.543,2.543,0,0,1,1.586,2.31Z" transform="translate(-449.425 -322.935)" fill="#1f2436"/>
    <path id="路径_10" data-name="路径 10" d="M428.6,335.766h-2.172V321.017c0-2.148,2.085-3.9,4.647-3.9h.46a2.175,2.175,0,0,1,2.172,2.178h-2.632c-1.342,0-2.475.787-2.475,1.718Z" transform="translate(-381.192 -317.121)" fill="#1f2436"/>
    <path id="路径_11" data-name="路径 11" d="M433.563,332.066h-5.422v-2.178h3.25a2.175,2.175,0,0,1,2.172,2.178Z" transform="translate(-381.974 -322.935)" fill="#1f2436"/>
    <path id="路径_12" data-name="路径 12" d="M451.476,336.991h-3.451a3.578,3.578,0,0,1-3.827-3.25V319.809h2.172V333.74c0,.507.68,1.072,1.655,1.072h1.28a2.175,2.175,0,0,1,2.172,2.178Z" transform="translate(-389.313 -318.345)" fill="#1f2436"/>
    <path id="路径_13" data-name="路径 13" d="M452.649,332.066h-5.886v-2.178h3.714a2.175,2.175,0,0,1,2.172,2.178Z" transform="translate(-390.486 -322.935)" fill="#1f2436"/>
    <path id="路径_14" data-name="路径 14" d="M609.5,336.991h-3.452a3.578,3.578,0,0,1-3.827-3.25V319.809h2.172V333.74c0,.507.68,1.072,1.655,1.072h1.28a2.175,2.175,0,0,1,2.172,2.178Z" transform="translate(-461.546 -318.345)" fill="#1f2436"/>
    <path id="路径_15" data-name="路径 15" d="M610.672,332.066h-5.885v-2.178H608.5a2.175,2.175,0,0,1,2.172,2.178Z" transform="translate(-462.719 -322.935)" fill="#1f2436"/>
    <path id="路径_16" data-name="路径 16" d="M625.907,341.734h-.182a5.755,5.755,0,0,1,0-11.51h.182a5.755,5.755,0,0,1,0,11.51Zm-.182-9.331a3.576,3.576,0,0,0,0,7.153h.182a3.576,3.576,0,0,0,0-7.153Z" transform="translate(-469.667 -323.088)" fill="#1f2436"/>
    <path id="路径_17" data-name="路径 17" d="M350.48,335.57a9.321,9.321,0,1,1,10.3-13.132l.468.983h0a2.252,2.252,0,0,1-2.914-.9c-.029-.05-.054-.09-.074-.119a7.128,7.128,0,1,0-5.74,11.182,7.229,7.229,0,0,0,5.972-3.5l.04-.066a2.265,2.265,0,0,1,2.834-.911h0l-.428,1A9.292,9.292,0,0,1,350.48,335.57Z" transform="translate(-343.103 -317.121)" fill="#1f2436"/>
    <path id="路径_18" data-name="路径 18" d="M504.328,335.57a9.321,9.321,0,1,1,10.3-13.132l.468.983h0a2.252,2.252,0,0,1-2.914-.9c-.029-.05-.054-.09-.074-.119a7.128,7.128,0,1,0-5.74,11.182,7.229,7.229,0,0,0,5.972-3.5l.04-.066a2.265,2.265,0,0,1,2.834-.911h0l-.428,1A9.292,9.292,0,0,1,504.328,335.57Z" transform="translate(-413.427 -317.121)" fill="#1f2436"/>
    <path id="路径_19" data-name="路径 19" d="M477.206,340.907l-9.869-10.417h0a2.161,2.161,0,0,1,3.066.073l9.874,10.413h0A2.167,2.167,0,0,1,477.206,340.907Z" transform="translate(-399.89 -322.935)" fill="#ffd550"/>
    <path id="路径_20" data-name="路径 20" d="M561.562,341.493h-5.284c-2.914,0-5.284-2.019-5.284-4.5v-1.613a5.42,5.42,0,0,1,4.922-5.475,5.3,5.3,0,0,1,5.646,5.288v.882a1.088,1.088,0,0,1-1.086,1.089h-4.33a2.174,2.174,0,0,1-2.172-2.178h5.408a3.118,3.118,0,0,0-3.49-2.891,3.206,3.206,0,0,0-2.728,3.226v1.672c0,1.259,1.425,2.323,3.112,2.323h3.112a2.175,2.175,0,0,1,2.172,2.178Z" transform="translate(-438.13 -322.937)" fill="#1f2436"/>
    <g id="组_2" data-name="组 2" transform="translate(67.447 6.953)">
      <g id="组_1" data-name="组 1">
        <path id="路径_21" data-name="路径 21" d="M482.135,334.945l4.221-4.455a2.161,2.161,0,0,0-3.066.073l-2.654,2.8Z" transform="translate(-473.416 -329.888)" fill="#ffd550"/>
        <path id="路径_22" data-name="路径 22" d="M471.557,342.076l-4.22,4.451a2.166,2.166,0,0,0,3.07-.069l2.651-2.8Z" transform="translate(-467.337 -335.438)" fill="#ffd550"/>
      </g>
    </g>
  </g>
  <g id="數位內容市集" transform="translate(1.379 25.865)">
    <g id="组_3" data-name="组 3">
      <path id="路径_23" data-name="路径 23" d="M392.153,369.765,393.341,365l-.931-.233-1.187,4.763a2.277,2.277,0,0,1-1.077,1.431l-.031.016a1.016,1.016,0,0,0-.536,1.235h0l.455-.152A3.247,3.247,0,0,0,392.153,369.765Z" transform="translate(-365.702 -364.685)" fill="#a6abba"/>
      <path id="路径_24" data-name="路径 24" d="M359.787,368.984a.961.961,0,0,0-.959-.962h-3.07l.505-3.04-.946-.159-.825,4.969a1.833,1.833,0,0,1-.717,1.168.472.472,0,0,1-.046.029,1.023,1.023,0,0,0-.474.614,1.321,1.321,0,0,0-1.26-.935h-1.559v-.361h1.2a1.322,1.322,0,0,0,1.319-1.323v-.241h1.079a.96.96,0,0,0-.959-.962h-.12v-.241a1.322,1.322,0,0,0-1.319-1.323h-1.2V364.9h-.959v1.322h-1.2a1.323,1.323,0,0,0-1.319,1.323v.241h-.839v.962h.839v.241a1.323,1.323,0,0,0,1.319,1.323h1.2v.361h-1.559a1.323,1.323,0,0,0,0,2.646h.895l-.6.721h-2.573V375h1.964a1.968,1.968,0,0,0,.075,1.4,1.948,1.948,0,0,0,.779.871l-1.671.2.112.955,2.63-.31a2.787,2.787,0,0,0,.85-.243l2.317.607a.963.963,0,0,0-.686-1.174l-.661-.173a2.822,2.822,0,0,0,.662-1.622l.036-.5h1.505a.961.961,0,0,0-.959-.962h-.478l.031-.445-.957-.069-.036.514h-1.692l.451-.542-.214-.179H352a1.323,1.323,0,0,0,1.292-1.059l.445-.179a2.78,2.78,0,0,0,1.705-2.126l.161-.966h2.323l-1.518,4.984a7.707,7.707,0,0,1-.452-1.888l-.03-.48-.957.06.03.48a8.909,8.909,0,0,0,.977,3.247l-.017.054a2.746,2.746,0,0,1-2.64,1.96h-.479v.962h.479a3.692,3.692,0,0,0,3.274-1.963,8.065,8.065,0,0,0,2.221,2.128l.4.26a.984.984,0,0,0-.264-1.335c-.04-.027-.071-.05-.092-.066a7.227,7.227,0,0,1-1.846-2.119l1.914-6.283Zm-7.792,0a.361.361,0,0,1-.36.361h-1.2v-.6H352Zm-.36-1.8a.361.361,0,0,1,.36.361v.241h-1.559v-.6Zm-3.716.361a.361.361,0,0,1,.36-.361h1.2v.6h-1.559Zm.36,1.8a.361.361,0,0,1-.36-.361v-.241h1.559v.6Zm2.776,6.087a1.864,1.864,0,0,1-.8,1.4l-1.033-.27a.988.988,0,0,1-.719-.729,1.026,1.026,0,0,1,.17-.839h2.416Zm-3.5-3.441a.361.361,0,0,1,.359-.361h1.559v.722h-1.559A.36.36,0,0,1,347.56,371.99Zm4.436.361h-1.559v-.722H352a.361.361,0,0,1,0,.722Z" transform="translate(-345.642 -364.71)" fill="#a6abba"/>
      <path id="路径_25" data-name="路径 25" d="M392.83,385.139a.96.96,0,0,0,.959-.962v-5.532h-.959Z" transform="translate(-367.212 -371.005)" fill="#a6abba"/>
      <path id="路径_26" data-name="路径 26" d="M405.637,371.05a.793.793,0,0,0-.792-.794h-7.6v.962h8.391Z" transform="translate(-369.23 -367.184)" fill="#a6abba"/>
      <path id="路径_27" data-name="路径 27" d="M404.792,380.773h-2.608c.521-1.544,1.592-7.118,1.64-7.364l.091-.473-.942-.182-.09.473c-.331,1.726-1.274,6.416-1.653,7.367l-.071.179h-5.238v.962h9.83A.961.961,0,0,0,404.792,380.773Z" transform="translate(-368.625 -368.322)" fill="#a6abba"/>
      <path id="路径_28" data-name="路径 28" d="M399.3,373.821l1.387,6.956a.961.961,0,0,0,.752-1.132l-1.2-6.013Z" transform="translate(-370.168 -368.721)" fill="#a6abba"/>
      <path id="路径_29" data-name="路径 29" d="M442.706,369.16H440.1a17.738,17.738,0,0,1-.27-2.414l-.009-.481-.958.018.009.481a17.712,17.712,0,0,0,.247,2.4h-2.884a2.4,2.4,0,0,0-2.4,2.4V379.5h.959v-7.936a1.441,1.441,0,0,1,1.439-1.443h3.072c.461,2.069,1.411,4.574,3.368,5.927l.395.273,0-.007a.983.983,0,0,0-.21-1.333c-.031-.025-.058-.046-.074-.061a9.224,9.224,0,0,1-2.49-4.8h2.408a1.441,1.441,0,0,1,1.438,1.443v6.012a.72.72,0,0,1-.719.721h-.719a.961.961,0,0,0-.959.962h1.679a1.681,1.681,0,0,0,1.678-1.683v-6.012A2.4,2.4,0,0,0,442.706,369.16Z" transform="translate(-385.956 -365.366)" fill="#a6abba"/>
      <path id="路径_30" data-name="路径 30" d="M439.948,374.982l-.254-.078-.2.667c-.427,1.409-.868,2.867-2.415,3.579l-.436.2.4.874.435-.2c1.94-.893,2.491-2.712,2.933-4.173A.7.7,0,0,0,439.948,374.982Z" transform="translate(-387.237 -369.301)" fill="#a6abba"/>
      <path id="路径_31" data-name="路径 31" d="M476.683,370.792a1.338,1.338,0,0,1,1.336-1.341h7.636a1.338,1.338,0,0,1,1.336,1.34.583.583,0,0,0,.582.584h.377v-.584a2.3,2.3,0,0,0-2.3-2.3h-7.636a2.3,2.3,0,0,0-2.3,2.3v.584h.959Z" transform="translate(-405.103 -366.379)" fill="#a6abba"/>
      <path id="路径_32" data-name="路径 32" d="M475.331,375.266a5.409,5.409,0,0,0,3.769-2.2l.923-1.273-.775-.566-.923,1.273a4.446,4.446,0,0,1-3.1,1.806l-.477.053.106.956Z" transform="translate(-404.657 -367.627)" fill="#a6abba"/>
      <path id="路径_46" data-name="路径 46" d="M.009,0H.969L.961,5.571H0Z" transform="matrix(0.625, -0.781, 0.781, 0.625, 77.613, 4.355)" fill="#a6abba"/>
      <path id="路径_33" data-name="路径 33" d="M517.613,370.776h6.234v1.683h-3.022v.962h3.022v7.456a.961.961,0,0,0,.959-.962v-6.493h2.637a.961.961,0,0,1,.959.962v2.886a.721.721,0,0,1-.719.722h-1.2a.96.96,0,0,0-.959.962h2.157a1.681,1.681,0,0,0,1.678-1.683v-2.886a1.921,1.921,0,0,0-1.918-1.924h-2.637v-1.683H530.8v-.962H517.613Z" transform="translate(-424.25 -366.983)" fill="#a6abba"/>
      <path id="路径_34" data-name="路径 34" d="M520.263,381.406a.961.961,0,0,0,.959-.962v-5.772h-.959Z" transform="translate(-425.461 -369.195)" fill="#a6abba"/>
      <path id="路径_35" data-name="路径 35" d="M563.058,365.5l.192-.441-.878-.386-.192.441c-.786,1.8-1.821,3.466-2.2,3.56h-.48a.961.961,0,0,0-.959.962h1.439C561.089,369.639,562.385,367.048,563.058,365.5Z" transform="translate(-442.959 -364.643)" fill="#a6abba"/>
      <path id="路径_36" data-name="路径 36" d="M574.921,369.451v-.962h-8.87v.962h3.117v.721H566.05v.962h3.117v.721H566.05v.962h3.117v.962H566.05v.962h9.59v-.962h-5.514v-.962h4.315v-.962h-4.315v-.721h4.315v-.962h-4.315v-.721Z" transform="translate(-446.391 -366.379)" fill="#a6abba"/>
      <path id="路径_37" data-name="路径 37" d="M562.959,377.2a.96.96,0,0,0,.959-.962v-2.886h-.959Z" transform="translate(-444.978 -368.592)" fill="#a6abba"/>
      <path id="路径_38" data-name="路径 38" d="M571.934,366.137l-1.011-1.522-.8.534.479.722A.957.957,0,0,0,571.934,366.137Z" transform="translate(-448.254 -364.615)" fill="#a6abba"/>
      <path id="路径_39" data-name="路径 39" d="M529.9,366.137l-1.011-1.522-.8.534.479.722A.957.957,0,0,0,529.9,366.137Z" transform="translate(-429.04 -364.615)" fill="#a6abba"/>
      <path id="路径_40" data-name="路径 40" d="M486.907,366.137l-1.012-1.522-.8.534.479.722A.958.958,0,0,0,486.907,366.137Z" transform="translate(-409.388 -364.615)" fill="#a6abba"/>
      <path id="路径_41" data-name="路径 41" d="M404.292,367.02l-1.011-1.522-.8.534.479.722A.957.957,0,0,0,404.292,367.02Z" transform="translate(-371.624 -365.017)" fill="#a6abba"/>
      <path id="路径_42" data-name="路径 42" d="M572.852,382.3v-.962h-5.994v-.481H565.9v.481h-6.473v.962H565.9v3.848a.96.96,0,0,0,.959-.962V382.3Z" transform="translate(-443.363 -372.01)" fill="#a6abba"/>
      <path id="路径_43" data-name="路径 43" d="M563.4,384.8a3.61,3.61,0,0,1-2.059,1.062h-1.918a.961.961,0,0,0,.959.962h.959a4.619,4.619,0,0,0,2.736-1.344l.339-.34-.678-.68Z" transform="translate(-443.363 -373.654)" fill="#a6abba"/>
      <path id="路径_44" data-name="路径 44" d="M579.876,385.865h-.959a3.634,3.634,0,0,1-2.059-1.062l-.339-.34-.678.68.339.34a4.621,4.621,0,0,0,2.736,1.344h1.918A.96.96,0,0,0,579.876,385.865Z" transform="translate(-450.866 -373.654)" fill="#a6abba"/>
      <path id="路径_45" data-name="路径 45" d="M482.927,375.766l-1.632-1.419a.478.478,0,0,0-.628,0l-1.633,1.419a17.43,17.43,0,0,1-4.215,2.712l-.707.323.4.876.707-.323a18.317,18.317,0,0,0,1.688-.879v2.954a1.456,1.456,0,0,0,1.454,1.458h5.483a1.456,1.456,0,0,0,1.454-1.458v-1.962a1.387,1.387,0,0,0-1.385-1.389H479.12a.961.961,0,0,0,.959.962h3.833a.427.427,0,0,1,.426.427v1.962a.5.5,0,0,1-.5.5h-5.483a.5.5,0,0,1-.5-.5v-2.149a.96.96,0,0,0-.743-.936,18.41,18.41,0,0,0,2.541-1.852l1.318-1.146,1.32,1.148a18.414,18.414,0,0,0,4.444,2.859.777.777,0,0,0,1.029-.387l.075-.166-.7-.321A17.464,17.464,0,0,1,482.927,375.766Z" transform="translate(-404.366 -368.994)" fill="#a6abba"/>
    </g>
  </g>
</svg>
